<?xml version="1.0" encoding="utf-8"?>
<!-- Generator: Adobe Illustrator 17.1.0, SVG Export Plug-In . SVG Version: 6.00 Build 0)  -->
<!DOCTYPE svg PUBLIC "-//W3C//DTD SVG 1.1//EN" "http://www.w3.org/Graphics/SVG/1.1/DTD/svg11.dtd">
<svg version="1.1" id="Capa_1" xmlns="http://www.w3.org/2000/svg" xmlns:xlink="http://www.w3.org/1999/xlink" x="0px" y="0px"
	 viewBox="0 0 800 600" enable-background="new 0 0 800 600" xml:space="preserve">
<g>
	<g>
		<path fill="#FFFFFF" d="M653.8,0H146.2c-6.4,0-11.5,5.2-11.5,11.5v576.9c0,6.4,5.2,11.5,11.5,11.5h507.7c6.4,0,11.5-5.2,11.5-11.5
			V11.5C665.4,5.2,660.2,0,653.8,0z M642.3,576.9H157.7V23.1h484.6L642.3,576.9L642.3,576.9z"/>
	</g>
</g>
<g>
	<g>
		<path fill="#FFFFFF" d="M607.7,46.2H192.3c-6.4,0-11.5,5.2-11.5,11.5v438.5c0,6.4,5.2,11.5,11.5,11.5h415.4
			c6.4,0,11.5-5.2,11.5-11.5V57.7C619.2,51.3,614.1,46.2,607.7,46.2z M342.3,162.7v-47.3h34.6c6.4,0,11.5-5.2,11.5-11.5
			c0-6.4-5.2-11.5-11.5-11.5h-34.6V69.2h115.4v93.5c0,5.5,3.9,10.2,9.2,11.3c21.4,4.3,36.9,23.4,36.9,45.2
			c0,25.4-20.7,46.2-46.2,46.2s-46.2-20.7-46.2-46.2c0-6.4-5.2-11.5-11.5-11.5c-6.4,0-11.5,5.2-11.5,11.5
			c0,25.4-20.7,46.2-46.2,46.2c-25.4,0-46.2-20.7-46.2-46.2c0-21.9,15.5-40.9,36.9-45.2C338.4,172.9,342.3,168.2,342.3,162.7z
			 M419.5,276.9c-7.7,5.1-14.3,11.8-19.5,19.5c-5.1-7.7-11.8-14.3-19.5-19.5c7.7-5.1,14.3-11.8,19.5-19.5
			C405.1,265.2,411.8,271.8,419.5,276.9z M319.2,484.6H203.8V69.2h115.4v84.7c-27.2,9.6-46.2,35.7-46.2,65.3
			c0,24.1,12.3,45.3,31,57.7c-18.7,12.4-31,33.6-31,57.7c0,29.6,18.9,55.6,46.2,65.3V484.6z M457.7,391.2v93.5H342.3v-93.5
			c0-5.5-3.9-10.2-9.2-11.3c-21.4-4.3-36.9-23.4-36.9-45.2c0-25.4,20.7-46.2,46.2-46.2s46.2,20.7,46.2,46.2
			c0,6.4,5.2,11.5,11.5,11.5s11.5-5.2,11.5-11.5c0-25.4,20.7-46.2,46.2-46.2s46.2,20.7,46.2,46.2c0,21.9-15.5,40.9-36.9,45.2
			C461.6,380.9,457.7,385.7,457.7,391.2z M596.2,484.6H480.8v-84.7c27.2-9.6,46.2-35.7,46.2-65.3c0-24.1-12.3-45.3-31-57.7
			c18.7-12.4,31-33.6,31-57.7c0-29.6-18.9-55.6-46.2-65.3V69.2h115.4V484.6z"/>
	</g>
</g>
<g>
	<g>
		<path fill="#FFFFFF" d="M584.6,531.1h-46.2c-6.4,0-11.5,5.2-11.5,11.5s5.2,11.5,11.5,11.5h46.2c6.4,0,11.5-5.2,11.5-11.5
			S591,531.1,584.6,531.1z"/>
	</g>
</g>
<g>
	<g>
		<path fill="#FFFFFF" d="M503.8,531.1h-46.2c-6.4,0-11.5,5.2-11.5,11.5s5.2,11.5,11.5,11.5h46.2c6.4,0,11.5-5.2,11.5-11.5
			S510.2,531.1,503.8,531.1z"/>
	</g>
</g>
<g>
	<g>
		<path fill="#FFFFFF" d="M423.1,531.1h-46.2c-6.4,0-11.5,5.2-11.5,11.5s5.2,11.5,11.5,11.5h46.2c6.4,0,11.5-5.2,11.5-11.5
			S429.4,531.1,423.1,531.1z"/>
	</g>
</g>
<g>
	<g>
		<path fill="#FFFFFF" d="M419.7,95.7c-2.1-2.1-5.1-3.4-8.2-3.4s-6,1.2-8.2,3.4c-2.1,2.1-3.4,5.1-3.4,8.2c0,3,1.2,6,3.4,8.2
			c2.1,2.1,5.1,3.4,8.2,3.4s6-1.2,8.2-3.4c2.1-2.1,3.4-5.1,3.4-8.2S421.8,97.8,419.7,95.7z"/>
	</g>
</g>
</svg>
