<?xml version="1.0" encoding="utf-8"?>
<!-- Generator: Adobe Illustrator 17.1.0, SVG Export Plug-In . SVG Version: 6.00 Build 0)  -->
<!DOCTYPE svg PUBLIC "-//W3C//DTD SVG 1.1//EN" "http://www.w3.org/Graphics/SVG/1.1/DTD/svg11.dtd">
<svg version="1.1" id="Capa_1" xmlns="http://www.w3.org/2000/svg" xmlns:xlink="http://www.w3.org/1999/xlink" x="0px" y="0px"
	 viewBox="0 0 800 600" enable-background="new 0 0 800 600" xml:space="preserve">
<g>
	<path fill="#FFFFFF" d="M287.5,319.9h12.2v43c0,5.3,4.3,9.6,9.6,9.6h38.6c5.3,0,9.6-4.3,9.6-9.6v-43h19.1v43c0,5.3,4.3,9.6,9.6,9.6
		h38.6c5.3,0,9.6-4.3,9.6-9.6v-43h12.2c5.3,0,9.6-4.3,9.6-9.6s-4.3-9.6-9.6-9.6h-5.7V166.9H467l83.6,47.6
		c15.5,8.9,28.6,31.6,28.6,49.5v64.8c0,5.3,4.3,9.6,9.6,9.6s9.6-4.3,9.6-9.6V264c0-24.7-16.8-53.7-38.3-66.1L474.3,149
		c-1.4-0.8-3.1-1.3-4.7-1.3h-28.7v-49c0-5.3-4.3-9.6-9.6-9.6h-16.1V9.6c0-5.3-4.3-9.6-9.6-9.6h-77c-5.3,0-9.6,4.3-9.6,9.6v79.7
		h-16.1c-5.3,0-9.6,4.3-9.6,9.6v202h-5.7c-5.3,0-9.6,4.3-9.6,9.6S282.2,319.9,287.5,319.9L287.5,319.9z M338.3,353.4h-19.4v-33.4
		h19.4V353.4z M415.2,353.4h-19.4v-33.4h19.4V353.4z M338.1,19.1H396v70.1h-57.9C338.1,89.2,338.1,19.1,338.1,19.1z M312.4,108.4
		h109.3v192.4H312.4V108.4z"/>
	<path fill="#FFFFFF" d="M588.8,357.5c-26.7,0-48.4,21.7-48.4,48.4c0,23.4,16.7,43,38.8,47.4v127.5H186.9l23.5-54.7
		c6.8-15.9,27.3-29.4,44.6-29.4h295c5.3,0,9.6-4.3,9.6-9.6s-4.3-9.6-9.6-9.6h-28.7V270.1c0-3.4-1.9-6.6-4.9-8.3l-42.1-23.9
		c-4.6-2.6-10.4-1-13.1,3.6c-2.6,4.6-1,10.4,3.6,13.1l37.3,21.1v120.7H287.5c-5.3,0-9.6,4.3-9.6,9.6v38.3c0,5.3,4.3,9.6,9.6,9.6
		h185.9c5.3,0,9.6-4.3,9.6-9.6s-4.3-9.6-9.6-9.6H297.1v-19.1h205v62.1H255c-25,0-52.3,18-62.2,41l-29.2,68.1c-1.3,3-1,6.4,0.8,9
		c1.8,2.7,4.8,4.3,8,4.3h416.4c5.3,0,9.6-4.3,9.6-9.6V453.3c22.1-4.5,38.8-24,38.8-47.4C637.2,379.2,615.5,357.5,588.8,357.5
		L588.8,357.5z M588.8,435.1c-16.1,0-29.2-13.1-29.2-29.2c0-16.1,13.1-29.2,29.2-29.2c16.1,0,29.2,13.1,29.2,29.2
		C618,422,604.9,435.1,588.8,435.1z"/>
</g>
</svg>
