<?xml version="1.0" encoding="utf-8"?>
<!-- Generator: Adobe Illustrator 17.1.0, SVG Export Plug-In . SVG Version: 6.00 Build 0)  -->
<!DOCTYPE svg PUBLIC "-//W3C//DTD SVG 1.1//EN" "http://www.w3.org/Graphics/SVG/1.1/DTD/svg11.dtd">
<svg version="1.1" id="Capa_1" xmlns="http://www.w3.org/2000/svg" xmlns:xlink="http://www.w3.org/1999/xlink" x="0px" y="0px"
	 viewBox="0 0 800 600" enable-background="new 0 0 800 600" xml:space="preserve">
<g>
	<g>
		<path fill="#FFFFFF" d="M699.3,334.5c-4.4-30.7-28.6-54.8-59.3-59.3V257c0-50.2-38.1-91-85-91c-45.5,0-83.6,39.6-85,88.3h0.6
			l-0.6,0.1v197.1c0,63-47.1,114.2-105,114.2s-105-51.2-105-114.2v-17.1c14.5,0,30-10.5,30-40v-25.1c64.2-16.4,110-71.5,110-134
			v-20.8h-20l-0.4-130.1c-0.1-24.1-17.4-44.7-41.1-48.9c-5.1-15.7-22-24.2-37.6-19.1c-15.7,5.1-24.2,22-19.1,37.6
			c5.1,15.7,22,24.2,37.6,19.1c8.4-2.7,15.1-9,18.4-17.2c12.8,3.6,21.7,15.3,21.8,28.6l0.5,130.1h-20v21.1
			c-0.8,34.8-24.1,65-57.6,74.6c-17.9,5.7-37.1,5.7-55,0c-33.4-9.6-56.7-39.9-57.4-74.6v-21.1h-30v-130c0.1-13.5,9.1-25.3,22.2-28.8
			c6.1,15.5,23.6,23.1,39.1,17s23.1-23.6,17-39.1s-23.6-23.1-39.1-17c-8.4,3.3-14.9,10.2-17.7,18.8c-24,4.1-41.5,24.8-41.6,49.1v130
			h-20v20.8c0,62.5,45.8,117.7,110,134v25.1c0,29.5,15.5,40,30,40v17.1c0,74,56.1,134.2,125,134.2s125-60.2,125-134.2V254.9
			c1-37.9,30.2-68.8,65-68.8c35.8,0,65,31.8,65,71v18.1c-38.3,5.5-64.8,41-59.3,79.3c5.5,38.3,41,64.8,79.3,59.3
			C678.3,408.2,704.8,372.7,699.3,334.5z M310,54.4c-5.5,0-10-4.5-10-10s4.5-10,10-10c5.5,0,10,4.5,10,10S315.5,54.4,310,54.4z
			 M190,34.4c5.5,0,10,4.5,10,10s-4.5,10-10,10s-10-4.5-10-10S184.5,34.4,190,34.4z M120,235.2v-0.8h30v1.1
			c0.7,43.5,29.7,81.4,71.4,93.6c21.9,6.9,45.3,6.9,67.2,0c41.7-12.2,70.7-50.2,71.4-93.6v-1.1h20v0.8c0,55.6-42.9,104.6-102,116.4
			c-13.9,2.8-28.1,3.5-42.2,2.1c-4.6-0.4-9.2-1.1-13.8-2.1C162.9,339.8,120,290.8,120,235.2z M240,414.4c-9,0-10-14-10-20v-21.2
			c0.8,0.1,1.6,0.1,2.4,0.2c1,0.1,2,0.2,3,0.3c4.7,0.4,9.5,0.7,14.3,0.7h0.5c4.8,0,9.6-0.3,14.3-0.7c1-0.1,2.1-0.2,3.1-0.3
			c0.8-0.1,1.6-0.1,2.4-0.2v21.2c0,6-1,20-10,20H240z M630,394.4c-27.6,0-50-22.4-50-50c0-27.6,22.4-50,50-50s50,22.4,50,50
			C680,372,657.6,394.4,630,394.4z"/>
	</g>
</g>
<g>
	<g>
		<path fill="#FFFFFF" d="M630,314.4c-16.6,0-30,13.4-30,30s13.4,30,30,30c16.6,0,30-13.4,30-30S646.6,314.4,630,314.4z M630,354.4
			c-5.5,0-10-4.5-10-10c0-5.5,4.5-10,10-10c5.5,0,10,4.5,10,10C640,349.9,635.5,354.4,630,354.4z"/>
	</g>
</g>
</svg>
