<?xml version="1.0" encoding="utf-8"?>
<!-- Generator: Adobe Illustrator 17.1.0, SVG Export Plug-In . SVG Version: 6.00 Build 0)  -->
<!DOCTYPE svg PUBLIC "-//W3C//DTD SVG 1.1//EN" "http://www.w3.org/Graphics/SVG/1.1/DTD/svg11.dtd">
<svg version="1.1" id="Capa_1" xmlns="http://www.w3.org/2000/svg" xmlns:xlink="http://www.w3.org/1999/xlink" x="0px" y="0px"
	 viewBox="0 0 800 600" enable-background="new 0 0 800 600" xml:space="preserve">
<g>
	<g>
		<path fill="#FFFFFF" d="M306.3,382c-6.5,0-11.7,5.3-11.7,11.7s5.3,11.7,11.7,11.7s11.7-5.3,11.7-11.7S312.7,382,306.3,382z"/>
	</g>
</g>
<g>
	<g>
		<path fill="#FFFFFF" d="M587.5,46.9c-12.8,0-117.9,0-130.1,0C452,20.2,428.3,0,400,0s-52,20.2-57.4,46.9c-12.2,0-117.2,0-130.1,0
			c-19.4,0-35.2,15.8-35.2,35.2v482.8c0,19.4,15.8,35.2,35.2,35.2h375c19.4,0,35.2-15.8,35.2-35.2V82
			C622.7,62.6,606.9,46.9,587.5,46.9z M318,70.3h35.2c6.5,0,11.7-5.2,11.7-11.7c0-19.4,15.8-35.2,35.2-35.2s35.2,15.8,35.2,35.2
			c0,6.5,5.2,11.7,11.7,11.7H482v23.4H318V70.3z M552.3,117.2v412.5H247.7V117.2H552.3z M599.2,564.8c0,6.5-5.3,11.7-11.7,11.7h-375
			c-6.5,0-11.7-5.3-11.7-11.7V82c0-6.5,5.3-11.7,11.7-11.7h82v23.4h-58.6c-6.5,0-11.7,5.2-11.7,11.7v435.9c0,6.5,5.2,11.7,11.7,11.7
			h328.1c6.5,0,11.7-5.2,11.7-11.7V105.5c0-6.5-5.2-11.7-11.7-11.7h-58.6V70.3h82c6.5,0,11.7,5.3,11.7,11.7V564.8z"/>
	</g>
</g>
<g>
	<g>
		<path fill="#FFFFFF" d="M493.8,452.3H306.3c-6.5,0-11.7,5.2-11.7,11.7s5.2,11.7,11.7,11.7h187.5c6.5,0,11.7-5.2,11.7-11.7
			S500.2,452.3,493.8,452.3z"/>
	</g>
</g>
<g>
	<g>
		<path fill="#FFFFFF" d="M493.8,382H353.1c-6.5,0-11.7,5.2-11.7,11.7s5.2,11.7,11.7,11.7h140.6c6.5,0,11.7-5.2,11.7-11.7
			S500.2,382,493.8,382z"/>
	</g>
</g>
<g>
	<g>
		<path fill="#FFFFFF" d="M400,171.1c-45.2,0-82,36.8-82,82s36.8,82,82,82s82-36.8,82-82S445.2,171.1,400,171.1z M400,311.7
			c-32.3,0-58.6-26.3-58.6-58.6s26.3-58.6,58.6-58.6s58.6,26.3,58.6,58.6S432.3,311.7,400,311.7z"/>
	</g>
</g>
<g>
	<g>
		<path fill="#FFFFFF" d="M423.4,241.4h-11.7v-11.7c0-6.5-5.2-11.7-11.7-11.7s-11.7,5.2-11.7,11.7v11.7h-11.7
			c-6.5,0-11.7,5.2-11.7,11.7s5.2,11.7,11.7,11.7h11.7v11.7c0,6.5,5.2,11.7,11.7,11.7s11.7-5.2,11.7-11.7v-11.7h11.7
			c6.5,0,11.7-5.2,11.7-11.7S429.9,241.4,423.4,241.4z"/>
	</g>
</g>
</svg>
