<?xml version="1.0" encoding="utf-8"?>
<!-- Generator: Adobe Illustrator 17.1.0, SVG Export Plug-In . SVG Version: 6.00 Build 0)  -->
<!DOCTYPE svg PUBLIC "-//W3C//DTD SVG 1.1//EN" "http://www.w3.org/Graphics/SVG/1.1/DTD/svg11.dtd">
<svg version="1.1" id="Layer_3" xmlns="http://www.w3.org/2000/svg" xmlns:xlink="http://www.w3.org/1999/xlink" x="0px" y="0px"
	 viewBox="0 0 800 600" enable-background="new 0 0 800 600" xml:space="preserve">
<g>
	<path fill="#FFFFFF" d="M561.8,411.3h77.9c14.1,0,25.7-11.6,25.7-25.7c0-14.1-11.6-25.7-25.7-25.7h-8.6v-17.1c0-4.1-2.9-7.7-7-8.5
		l-137-25.7c-1.1-0.2-2.1-0.2-3.2,0L407.3,324c-4.6-18.7-21.4-32.6-41.4-32.6c-23.7,0-42.8,19.2-42.8,42.8c0,9.6,3.3,18.5,8.8,25.7
		h-26V197.3c0-4.7-3.9-8.6-8.6-8.6h-42.8V163c0-4.7-3.9-8.6-8.6-8.6H143.2c-4.7,0-8.6,3.9-8.6,8.6v359.6v34.2c0,4.7,3.9,8.6,8.6,8.6
		h513.7c4.7,0,8.6-3.9,8.6-8.6v-34.2c0-4.7-3.9-8.6-8.6-8.6H528.4v-69.3C545.1,441.3,558.4,428,561.8,411.3L561.8,411.3z
		 M519.9,428.4h-214v-17.1h238.1C540.4,421.2,531,428.4,519.9,428.4z M485.6,325.9L614,350V360H399.8c4.1-5.4,6.8-11.7,8-18.5
		L485.6,325.9z M340.1,334.2c0-14.1,11.6-25.7,25.7-25.7c14.1,0,25.7,11.6,25.7,25.7c0,14.1-11.6,25.7-25.7,25.7
		C351.6,359.9,340.1,348.4,340.1,334.2z M639.7,377.1c4.7,0,8.6,3.9,8.6,8.6c0,4.7-3.9,8.6-8.6,8.6H305.8v-17.1H639.7z M305.8,488.3
		v-42.8h171.2V514H254.5v-17.1h42.8C302,496.9,305.8,493.1,305.8,488.3z M237.3,514h-85.6v-34.2h85.6V514z M288.7,205.8v274h-34.2
		v-274H288.7z M237.3,171.6v291.1h-85.6V171.6H237.3z M648.3,548.3H151.7v-17.1h496.6V548.3z M494.2,514v-68.5h17.1V514H494.2z"/>
	<path fill="#FFFFFF" d="M168.8,188.7H186v17.1h-17.1V188.7z"/>
	<path fill="#FFFFFF" d="M203.1,188.7h17.1v17.1h-17.1V188.7z"/>
	<path fill="#FFFFFF" d="M168.8,222.9H186v17.1h-17.1V222.9z"/>
	<path fill="#FFFFFF" d="M203.1,222.9h17.1v17.1h-17.1V222.9z"/>
	<path fill="#FFFFFF" d="M656.8,34.6H348.6c-4.7,0-8.6,3.9-8.6,8.6v205.5c0,4.7,3.9,8.6,8.6,8.6h308.2c4.7,0,8.6-3.9,8.6-8.6V43.2
		C665.4,38.5,661.5,34.6,656.8,34.6z M648.3,240.1H357.2V51.7h291.1V240.1z"/>
	<path fill="#FFFFFF" d="M382.9,222.9h239.7c4.7,0,8.6-3.9,8.6-8.6v-137c0-4.7-3.9-8.6-8.6-8.6H382.9c-4.7,0-8.6,3.9-8.6,8.6v137
		C374.3,219.1,378.2,222.9,382.9,222.9z M391.4,86H614v119.9H391.4V86z"/>
	<path fill="#FFFFFF" d="M528,109c-1.2-3.4-4.4-5.8-7.9-5.9c-4,0-6.8,2.1-8.1,5.6l-17.3,45.8l-9.5-28.5c-1.1-3.3-4.1-5.6-7.5-5.8
		s-6.7,1.6-8.2,4.7l-14.7,29.5h-29v17.1h34.2c3.2,0,6.2-1.8,7.7-4.7l7.9-15.7l10.6,31.8c1.2,3.4,4.4,5.8,7.9,5.9h0.2
		c3.5,0,6.7-2.2,8-5.6l17.2-45.8l9.5,28.5c1.2,3.5,4.4,5.9,8.1,5.9H580v-17.1h-36.6L528,109z"/>
</g>
</svg>
