<?xml version="1.0" encoding="utf-8"?>
<!-- Generator: Adobe Illustrator 17.1.0, SVG Export Plug-In . SVG Version: 6.00 Build 0)  -->
<!DOCTYPE svg PUBLIC "-//W3C//DTD SVG 1.1//EN" "http://www.w3.org/Graphics/SVG/1.1/DTD/svg11.dtd">
<svg version="1.1" id="Capa_1" xmlns="http://www.w3.org/2000/svg" xmlns:xlink="http://www.w3.org/1999/xlink" x="0px" y="0px"
	 viewBox="0 0 419.4 126.9" enable-background="new 0 0 419.4 126.9" xml:space="preserve">
<g>
	<g>
		<path fill="#FFFFFF" d="M54.6,22.7c0,0-9.8-17-31-9.9c-18,8-20,27.7-17.4,41.4c2.3,12.1,6.5,29,30.7,48.3c0,0,8.4-24.6,30.4-35.4
			c0,0-7.9,0.9-12.8-0.2c-4.9-1.1-17.3-4.9-15-25.7C41.8,29.7,50.1,25.7,54.6,22.7z"/>
		<path fill="#FFFFFF" d="M105.5,51c0,0,3.9-29.4-15.9-37.8s-31.5,5.9-35.8,14.5s-7,17.9-5.7,29.5h27.5c0,0-6.2-9.1,1.2-18.3
			c7.5-9.1,16.5-6.3,21.1-3.6C103.1,38.9,104.5,46.3,105.5,51z"/>
		<path fill="#FFFFFF" d="M77.4,52.2c0,0-0.4-5.9,2.8-9.9s6.5-6.3,12.9-5c6.3,1.3,11,6.4,10.8,13.7s-1.4,12.2-7.1,22.8
			c-6.2,10.8-15.6,13.8-21.7,23.9c-4.7,7.9-4.2,13.4-4,17.8c0,0.4-0.3,0.7-0.7,0.6c-6.6-0.8-17.4-3.3-30.6-12
			c0,0,4.6-18.8,22.8-31.2c16.4-9.8,21.8-13.1,22.9-17.3c0.3-1.1,0.3-2.2-0.2-3.3C84.1,49.2,80.1,49.7,77.4,52.2z"/>
	</g>
	<g>
		<g>
			<path fill="#FFFFFF" d="M141.7,24.3c-0.5-1.8-1.5-5.3-6.7-5.3c-3.1,0-7.5,2-7.5,10.6c0,5.5,2.2,10.4,7.5,10.4c3.5,0,6-2,6.7-5.7
				h6.4c-1.3,6.6-5.6,11.2-13.2,11.2c-8.1,0-13.9-5.5-13.9-16c0-10.6,6.1-16.1,14-16.1c9.1,0,12.8,6.3,13.1,10.8H141.7z"/>
			<path fill="#FFFFFF" d="M171.8,38.2c-1.6,5.4-6.1,7.2-9.9,7.2c-6.4,0-11.2-3.1-11.2-12.3c0-2.7,0.9-11.4,10.8-11.4
				c4.5,0,10.6,2.1,10.6,12.4v1.1h-15.5c0.2,1.7,0.5,5.5,5.3,5.5c1.7,0,3.3-0.8,3.8-2.5H171.8z M166,31.3c-0.3-3.6-2.7-4.7-4.6-4.7
				c-2.8,0-4.3,1.8-4.6,4.7H166z"/>
			<path fill="#FFFFFF" d="M196.4,44.8h-5.9V31.1c0-1.7-0.1-4.5-3.9-4.5c-2.6,0-4.7,1.8-4.7,5.2v12.9H176V22.2h5.7v3.3h0.1
				c0.8-1.4,2.5-3.9,6.8-3.9c4.4,0,7.8,2.6,7.8,7.5V44.8z"/>
			<path fill="#FFFFFF" d="M208.6,22.2h3.7v4.2h-3.7v12.3c0,1.3,0,1.8,2.5,1.8c0.4,0,0.8,0,1.2-0.1V45c-0.9,0-1.9,0.1-2.8,0.1h-0.8
				c-5.1,0-6.1-1.9-6.1-4.9V26.5h-3.1v-4.2h3.1v-6.1h5.9V22.2z"/>
			<path fill="#FFFFFF" d="M216,22.2h5.7v3.9h0.1c1.2-2.3,2.6-4.5,6.2-4.5c0.4,0,0.8,0,1.1,0.1v6c-0.5-0.1-1.1-0.1-1.7-0.1
				c-4.6,0-5.5,2.9-5.5,5.4v11.7H216V22.2z"/>
			<path fill="#FFFFFF" d="M241.9,45.4c-6.1,0-11.5-3.7-11.5-11.9s5.5-11.9,11.5-11.9c6.1,0,11.5,3.7,11.5,11.9S248,45.4,241.9,45.4
				z M241.9,26.6c-4.6,0-5.4,4-5.4,6.9s0.8,6.9,5.4,6.9c4.6,0,5.4-4,5.4-6.9S246.5,26.6,241.9,26.6z"/>
			<path fill="#FFFFFF" d="M299.1,44.8h-5.9V19.4H293l-5.7,25.4h-6.2l-5.6-25.4h-0.1v25.4h-5.9V14.4h9.3l5.5,24h0.1l5.4-24h9.2V44.8
				z"/>
			<path fill="#FFFFFF" d="M324.1,38.2c-1.6,5.4-6.1,7.2-9.9,7.2c-6.4,0-11.2-3.1-11.2-12.3c0-2.7,0.9-11.4,10.8-11.4
				c4.5,0,10.6,2.1,10.6,12.4v1.1h-15.5c0.2,1.7,0.5,5.5,5.3,5.5c1.7,0,3.3-0.8,3.8-2.5H324.1z M318.2,31.3
				c-0.3-3.6-2.7-4.7-4.6-4.7c-2.8,0-4.3,1.8-4.6,4.7H318.2z M315.6,19.2h-4.3l4-6.2h6.5L315.6,19.2z"/>
			<path fill="#FFFFFF" d="M348.9,44.8h-5.8v-2.8H343c-1.4,2.5-4.1,3.4-6.5,3.4c-6.7,0-9.5-5.9-9.5-12.1c0-7.8,4.4-11.6,9.4-11.6
				c3.8,0,5.6,2.1,6.5,3.5h0.1V14.4h5.9V44.8z M337.9,40.5c3.8,0,5.3-3.1,5.3-6.5c0-3.6-1-7.2-5.1-7.2c-3.8,0-5,3.3-5,6.9
				C333.1,36.4,334.1,40.5,337.9,40.5z"/>
			<path fill="#FFFFFF" d="M360.3,19.6h-5.9v-5.5h5.9V19.6z M360.3,22.2v22.6h-5.9V22.2H360.3z"/>
			<path fill="#FFFFFF" d="M385.4,36.6c-0.2,2.3-2,8.8-10.3,8.8c-8.5,0-10.4-6.5-10.4-11.2c0-7.3,3.2-12.5,10.8-12.5
				c3.6,0,9.4,1.6,10,8.6h-6c-0.3-1.4-1.1-3.6-3.6-3.6h-0.3c-3.7,0-4.7,3.7-4.7,6.5c0,2.5,0.1,7.3,4.6,7.3c3,0,4-2.9,4-3.9H385.4z"
				/>
			<path fill="#FFFFFF" d="M399.8,45.4c-6.1,0-11.5-3.7-11.5-11.9s5.5-11.9,11.5-11.9s11.5,3.7,11.5,11.9S405.8,45.4,399.8,45.4z
				 M399.8,26.6c-4.6,0-5.4,4-5.4,6.9s0.8,6.9,5.4,6.9s5.4-4,5.4-6.9S404.3,26.6,399.8,26.6z"/>
		</g>
		<g>
			<path fill="#FFFFFF" d="M146.5,77.7c-0.6-2.2-1.8-6.4-8.1-6.4c-3.7,0-9.1,2.5-9.1,12.9c0,6.6,2.6,12.6,9.1,12.6
				c4.3,0,7.2-2.4,8.1-6.9h7.7c-1.5,8-6.8,13.6-16,13.6c-9.8,0-16.8-6.6-16.8-19.3c0-12.9,7.4-19.4,16.9-19.4c11,0,15.5,7.6,15.9,13
				H146.5z"/>
			<path fill="#FFFFFF" d="M176,64.6c4.9,0,17.7,2.1,17.7,19.4c0,17.3-12.8,19.4-17.7,19.4s-17.7-2.1-17.7-19.4
				C158.4,66.8,171.2,64.6,176,64.6z M176,96.9c4.2,0,10-2.6,10-12.9c0-10.3-5.8-12.9-10-12.9c-4.2,0-10,2.6-10,12.9
				C166.1,94.3,171.9,96.9,176,96.9z"/>
			<path fill="#FFFFFF" d="M223.4,77.7c-0.6-2.2-1.8-6.4-8.1-6.4c-3.7,0-9.1,2.5-9.1,12.9c0,6.6,2.6,12.6,9.1,12.6
				c4.3,0,7.2-2.4,8.1-6.9h7.7c-1.5,8-6.8,13.6-16,13.6c-9.8,0-16.8-6.6-16.8-19.3c0-12.9,7.4-19.4,16.9-19.4c11,0,15.5,7.6,15.9,13
				H223.4z"/>
			<path fill="#FFFFFF" d="M244.3,85.9v16.5h-7.7V65.6h7.7v13.9h14.4V65.6h7.7v36.8h-7.7V85.9H244.3z"/>
			<path fill="#FFFFFF" d="M273.9,65.6h18.6c9.8,0,11.6,7.2,11.6,10.4c0,4-2.1,7.5-5.7,8.8c3,1.3,4.7,2.5,4.7,9.3
				c0,5.4,0,6.7,1.6,7.3v1h-8.5c-0.5-1.7-0.8-3.6-0.8-7.4c0-5-0.3-7-6-7h-7.9v14.4h-7.5V65.6z M290.5,81.8c4,0,5.9-1.4,5.9-5
				c0-1.9-0.9-4.8-5.4-4.8h-9.6v9.8H290.5z"/>
			<path fill="#FFFFFF" d="M315.1,102.4H307l13.1-36.8h8.9l13,36.8h-8.4l-2.4-7.6h-13.6L315.1,102.4z M319.7,88.5h9.4l-4.6-14.6
				h-0.1L319.7,88.5z"/>
			<path fill="#FFFFFF" d="M369.3,65.6h7.2v36.8h-7.7l-15-26.2h-0.1v26.2h-7.2V65.6h8.1l14.6,25.6h0.1V65.6z"/>
			<path fill="#FFFFFF" d="M411,72.1h-19.5v7.7h17.9v6.5h-17.9v9.5h20.4v6.5h-27.9V65.6H411V72.1z"/>
		</g>
		<rect x="119.1" y="52.9" fill="#FFFFFF" width="292.5" height="5.8"/>
		<rect x="119.1" y="111.5" fill="#FFFFFF" width="292.5" height="5.8"/>
	</g>
</g>
</svg>
